<?xml version="1.0" encoding="utf-8"?>
<!-- Generator: Adobe Illustrator 23.0.1, SVG Export Plug-In . SVG Version: 6.00 Build 0)  -->
<svg version="1.1" id="Слой_1" xmlns="http://www.w3.org/2000/svg" xmlns:xlink="http://www.w3.org/1999/xlink" x="0px" y="0px"
	 viewBox="0 0 468 318" style="enable-background:new 0 0 468 318;" xml:space="preserve">
<style type="text/css">
	.st0{display:none;}
	.st1{fill:#FFFFFF;}
</style>
<g class="st0">
	
		<image style="display:inline;overflow:visible;opacity:0.49;enable-background:new    ;" width="2560" height="1600" xlink:href="F9A301C0.jpeg"  transform="matrix(0.6804 0 0 0.6193 166 82)">
	</image>
</g>
<g id="Слой_3">
	<g>
		<rect x="216.3" y="8.9" class="st1" width="38.1" height="300.3"/>
		<polygon class="st1" points="369,194 317,285 284,301 234,313 234,7 329,22 347,20 438,79 461,131 401,203 396,233 		"/>
		<polygon points="278,155.3 299.1,122 345,142 300.3,166 		"/>
		<polygon points="235,274 235,230 256,214 272,243 		"/>
		<polygon class="st1" points="100,194 152,285 185,301 235,313 235,7 140,22 122,20 31,79 8,131 68,203 73,233 		"/>
		<polygon points="198,155.3 176.9,122 131,142 175.7,166 		"/>
		<polygon points="236,274 236,230 215,214 199,243 		"/>
	</g>
</g>
</svg>
